<?xml version="1.0" encoding="UTF-8"?>
<svg id="Layer_1" data-name="Layer 1" xmlns="http://www.w3.org/2000/svg" viewBox="0 0 57.6 57.6">
  <defs>
    <style>
      .cls-1 {
        fill: none;
        stroke: #000;
        stroke-linecap: round;
        stroke-linejoin: round;
        stroke-width: 2px;
      }
    </style>
  </defs>
  <g>
    <path class="cls-1" d="m24.6,39.89c0,6.05-4.9,7.95-10.95,7.95s-10.95-1.9-10.95-7.95,21.91-6.05,21.91,0Z"/>
    <path class="cls-1" d="m54.91,39.89c0,6.05-4.9,7.95-10.95,7.95s-10.95-1.9-10.95-7.95,21.91-6.05,21.91,0Z"/>
    <line class="cls-1" x1="24.6" y1="39.89" x2="33" y2="39.89"/>
  </g>
  <g>
    <path class="cls-1" d="m38.83,18.35c4.22-3.61,7.95-.48,7.95-.48,0,0,1.39.88,1.77,3.29.23,1.45-.29,3.82.6,6.58.89,2.76,2.2,3.84,3.33,5.66s.47,3.7.47,3.7"/>
    <path class="cls-1" d="m18.77,18.35c-4.22-3.61-7.95-.48-7.95-.48,0,0-1.39.88-1.77,3.29-.23,1.45.29,3.82-.6,6.58-.89,2.76-2.2,3.84-3.33,5.66-1.08,1.74-.47,3.7-.47,3.7"/>
  </g>
</svg>