<?xml version="1.0" encoding="UTF-8"?>
<svg id="Layer_1" data-name="Layer 1" xmlns="http://www.w3.org/2000/svg" viewBox="0 0 57.6 57.6">
  <defs>
    <style>
      .cls-1 {
        fill: none;
        stroke: #000;
        stroke-linecap: round;
        stroke-linejoin: round;
        stroke-width: 2px;
      }
    </style>
  </defs>
  <g>
    <path class="cls-1" d="m38.83,11.7c4.22-3.61,7.95-.48,7.95-.48,0,0,1.39.88,1.77,3.29.23,1.45-.29,3.82.6,6.58.89,2.76,2.2,3.84,3.33,5.66s.47,3.7.47,3.7"/>
    <path class="cls-1" d="m18.77,11.7c-4.22-3.61-7.95-.48-7.95-.48,0,0-1.39.88-1.77,3.29-.23,1.45.29,3.82-.6,6.58s-2.2,3.84-3.33,5.66c-1.08,1.74-.47,3.7-.47,3.7"/>
  </g>
  <g>
    <path class="cls-1" d="m24.6,36.69c0,6.05-4.9,10.95-10.95,10.95s-10.95-4.9-10.95-10.95c0-2.27.69-4.5,1.87-6.25h18.08c1.23,1.77,1.95,3.92,1.95,6.25Z"/>
    <path class="cls-1" d="m54.91,36.69c0,6.05-4.9,10.95-10.95,10.95s-10.95-4.9-10.95-10.95c0-2.27.69-4.5,1.87-6.25h18.08c1.23,1.77,1.95,3.92,1.95,6.25Z"/>
    <line class="cls-1" x1="24.6" y1="36.18" x2="33" y2="36.18"/>
    <line class="cls-1" x1="2.69" y1="36.18" x2="24.6" y2="36.18"/>
    <line class="cls-1" x1="33" y1="36.18" x2="54.91" y2="36.18"/>
    <line class="cls-1" x1="3.98" y1="41.91" x2="23.31" y2="41.91"/>
    <line class="cls-1" x1="34.29" y1="41.91" x2="53.62" y2="41.91"/>
  </g>
</svg>