<?xml version="1.0" encoding="UTF-8"?>
<svg id="Layer_1" data-name="Layer 1" xmlns="http://www.w3.org/2000/svg" viewBox="0 0 57.6 57.6">
  <defs>
    <style>
      .cls-1 {
        fill: none;
        stroke: #000;
        stroke-linecap: round;
        stroke-linejoin: round;
        stroke-width: 2px;
      }
    </style>
  </defs>
  <g>
    <path class="cls-1" d="m24.6,37.89c0,6.05-4.9,9.95-10.95,9.95s-10.95-4.9-10.95-10.95,21.91-5.05,21.91,1Z"/>
    <path class="cls-1" d="m54.91,36.89c0,6.05-4.9,10.95-10.95,10.95s-10.95-3.9-10.95-9.95,21.91-7.05,21.91-1Z"/>
    <line class="cls-1" x1="24.6" y1="36.89" x2="33" y2="36.89"/>
  </g>
  <g>
    <path class="cls-1" d="m38.95,15.45c4.22-3.61,7.95-.48,7.95-.48,0,0,1.39.88,1.77,3.29.23,1.45-.29,3.82.6,6.58.89,2.76,2.2,3.84,3.33,5.66s.47,3.7.47,3.7"/>
    <path class="cls-1" d="m18.88,15.45c-4.22-3.61-7.95-.48-7.95-.48,0,0-1.39.88-1.77,3.29-.23,1.45.29,3.82-.6,6.58s-2.2,3.84-3.33,5.66c-1.08,1.74-.47,3.7-.47,3.7"/>
  </g>
</svg>