<?xml version="1.0" encoding="UTF-8"?>
<svg id="Layer_1" data-name="Layer 1" xmlns="http://www.w3.org/2000/svg" viewBox="0 0 57.6 57.6">
  <defs>
    <style>
      .cls-1 {
        fill: none;
        stroke: #000;
        stroke-linecap: round;
        stroke-linejoin: round;
        stroke-width: 2px;
      }
    </style>
  </defs>
  <line class="cls-1" x1="22.29" y1="38.5" x2="35.31" y2="38.5"/>
  <path class="cls-1" d="m4.65,31.24s-.6-1.96.47-3.7c1.13-1.82,2.44-2.9,3.33-5.66.89-2.76.37-5.13.6-6.58.38-2.4,1.77-3.29,1.77-3.29,0,0,6.16-5.34,17.98-5.34s17.98,5.34,17.98,5.34c0,0,1.39.88,1.77,3.29.23,1.45-.29,3.82.6,6.58.89,2.76,2.2,3.84,3.33,5.66s.47,3.7.47,3.7"/>
  <path class="cls-1" d="m43.51,26.62H14.09c-6.6,0-12,5.4-12,12v5.23c0,3.89,3.18,7.07,7.07,7.07h9.42c2.65,0,5.32-.73,7.34-2.44.74-.62,1.75-1.01,2.88-1.01s2.14.39,2.88,1.01c2.02,1.71,4.7,2.44,7.34,2.44h9.42c3.89,0,7.07-3.18,7.07-7.07v-5.23c0-6.6-5.4-12-12-12Z"/>
</svg>