<?xml version="1.0" encoding="UTF-8"?>
<svg id="Layer_1" data-name="Layer 1" xmlns="http://www.w3.org/2000/svg" viewBox="0 0 71.09 57.6">
  <defs>
    <style>
      .cls-1 {
        fill: none;
        stroke: #000;
        stroke-linecap: round;
        stroke-linejoin: round;
        stroke-width: 2px;
      }
    </style>
  </defs>
  <path class="cls-1" d="m11.39,27.4s-.6-1.96.47-3.7c1.13-1.82,2.44-2.9,3.33-5.66s.37-5.13.6-6.58c.38-2.4,1.77-3.29,1.77-3.29,0,0,6.16-5.34,17.98-5.34s17.98,5.34,17.98,5.34c0,0,1.39.88,1.77,3.29.23,1.45-.29,3.82.6,6.58.89,2.76,2.2,3.84,3.33,5.66s.47,3.7.47,3.7"/>
  <g>
    <path class="cls-1" d="m29.31,41.41s-3.25,2.79-7.26,2.79-7.26-5.79-7.26-5.79c0,0,3.25-1.79,7.26-1.79s7.26,4.79,7.26,4.79Z"/>
    <path class="cls-1" d="m35.54,45.21c1.45,0,8.35,12.78,19.18,5.95,10.82-6.83,12.48-25.93,12.48-25.93-7.46,4.59-21.88-.31-31.66,11.39-11.34-11.86-24.2-6.8-31.66-11.39,0,0,1.66,19.11,12.48,25.93s17.73-5.95,19.18-5.95Z"/>
    <path class="cls-1" d="m41.77,41.41s3.25,2.79,7.26,2.79,7.26-5.79,7.26-5.79c0,0-3.25-1.79-7.26-1.79s-7.26,4.79-7.26,4.79Z"/>
  </g>
</svg>