<?xml version="1.0" encoding="UTF-8"?>
<svg id="Layer_1" data-name="Layer 1" xmlns="http://www.w3.org/2000/svg" viewBox="0 0 57.6 57.6">
  <defs>
    <style>
      .cls-1, .cls-2 {
        fill: none;
        stroke: #000;
        stroke-linecap: round;
        stroke-linejoin: round;
        stroke-width: 2px;
      }

      .cls-2 {
        fill-rule: evenodd;
      }
    </style>
  </defs>
  <line class="cls-1" x1="23.83" y1="37.53" x2="33.76" y2="37.53"/>
  <g>
    <path class="cls-1" d="m38.83,11.79c4.22-3.61,7.95-.48,7.95-.48,0,0,1.39.88,1.77,3.29.23,1.45-.29,3.82.6,6.58.89,2.76,2.2,3.84,3.33,5.66s.47,3.7.47,3.7"/>
    <path class="cls-1" d="m18.76,11.79c-4.22-3.61-7.95-.48-7.95-.48,0,0-1.39.88-1.77,3.29-.23,1.45.29,3.82-.6,6.58s-2.2,3.84-3.33,5.66c-1.08,1.74-.47,3.7-.47,3.7"/>
  </g>
  <path class="cls-2" d="m24.19,33.46c-.29-1.07-.85-2.05-1.62-2.83-2.47-2.5-6.5-2.52-9-.05-2.5-2.47-6.53-2.45-9,.05-.78.79-1.34,1.76-1.62,2.83-.55,2.06,0,4.1,1.69,6.25,2.53,3.2,8.93,7.84,8.93,7.84h0s6.4-4.64,8.93-7.84c1.69-2.14,2.24-4.19,1.69-6.25Z"/>
  <path class="cls-2" d="m54.65,33.46c-.29-1.07-.85-2.05-1.62-2.83-2.47-2.5-6.5-2.52-9-.05-2.5-2.47-6.53-2.45-9,.05-.78.79-1.34,1.76-1.62,2.83-.55,2.06,0,4.1,1.69,6.25,2.53,3.2,8.93,7.84,8.93,7.84h0s6.4-4.64,8.93-7.84c1.69-2.14,2.24-4.19,1.69-6.25Z"/>
</svg>