<?xml version="1.0" encoding="UTF-8"?>
<svg id="Layer_1" data-name="Layer 1" xmlns="http://www.w3.org/2000/svg" viewBox="0 0 57.6 57.6">
  <defs>
    <style>
      .cls-1 {
        fill: none;
        stroke: #000;
        stroke-linecap: round;
        stroke-linejoin: round;
        stroke-width: 2px;
      }
    </style>
  </defs>
  <g>
    <line class="cls-1" x1="23.29" y1="35.91" x2="34.31" y2="35.91"/>
    <polygon class="cls-1" points="14.37 22.64 18.27 30.54 27 31.81 20.68 37.97 22.17 46.66 14.37 42.55 6.56 46.66 8.05 37.97 1.74 31.81 10.46 30.54 14.37 22.64"/>
    <polygon class="cls-1" points="43.23 22.64 47.14 30.54 55.86 31.81 49.55 37.97 51.04 46.66 43.23 42.55 35.43 46.66 36.92 37.97 30.6 31.81 39.33 30.54 43.23 22.64"/>
  </g>
  <g>
    <path class="cls-1" d="m38.83,12.42c4.22-3.61,7.95-.48,7.95-.48,0,0,1.39.88,1.77,3.29.23,1.45-.29,3.82.6,6.58.89,2.76,2.2,3.84,3.33,5.66,1.08,1.74.47,3.7.47,3.7"/>
    <path class="cls-1" d="m18.77,12.42c-4.22-3.61-7.95-.48-7.95-.48,0,0-1.39.88-1.77,3.29-.23,1.45.29,3.82-.6,6.58s-2.2,3.84-3.33,5.66-.47,3.7-.47,3.7"/>
  </g>
</svg>