<?xml version="1.0" encoding="UTF-8"?>
<svg id="Layer_1" data-name="Layer 1" xmlns="http://www.w3.org/2000/svg" viewBox="0 0 57.6 57.6">
  <defs>
    <style>
      .cls-1 {
        fill: none;
        stroke: #000;
        stroke-linecap: round;
        stroke-linejoin: round;
        stroke-width: 2px;
      }
    </style>
  </defs>
  <g>
    <path class="cls-1" d="m24.6,38.5c0,6.05-4.9,7.95-10.95,7.95s-10.95-1.9-10.95-7.95,21.91-6.05,21.91,0Z"/>
    <path class="cls-1" d="m54.91,38.5c0,6.05-4.9,7.95-10.95,7.95s-10.95-1.9-10.95-7.95,21.91-6.05,21.91,0Z"/>
    <line class="cls-1" x1="24.6" y1="38.5" x2="33" y2="38.5"/>
    <line class="cls-1" x1="23.74" y1="42.3" x2="33.86" y2="42.3"/>
  </g>
  <path class="cls-1" d="m4.76,35.71s-.6-1.96.47-3.7c1.13-1.82,2.44-2.9,3.33-5.66.89-2.76.37-5.13.6-6.58.38-2.4,1.77-3.29,1.77-3.29,0,0,6.16-5.34,17.98-5.34s17.98,5.34,17.98,5.34c0,0,1.39.88,1.77,3.29.23,1.45-.29,3.82.6,6.58.89,2.76,2.2,3.84,3.33,5.66s.47,3.7.47,3.7"/>
</svg>