<?xml version="1.0" encoding="UTF-8"?>
<svg id="Layer_1" data-name="Layer 1" xmlns="http://www.w3.org/2000/svg" viewBox="0 0 30.04 30.04">
  <defs>
    <style>
      .cls-1 {
        fill: none;
        stroke: #000;
        stroke-miterlimit: 10;
        stroke-width: 2px;
      }

      .cls-2 {
        fill-rule: evenodd;
        stroke-width: 0px;
      }
    </style>
  </defs>
  <path class="cls-1" d="m25.15,15.02s-3.94,6.98-10.14,6.98c-6.19,0-10.14-6.98-10.14-6.98,0,0,3.94-6.98,10.14-6.98,6.19,0,10.14,6.98,10.14,6.98Z"/>
  <path class="cls-2" d="m19.83,13.44c-.13-.48-.38-.93-.74-1.28-1.12-1.13-2.95-1.14-4.08-.02-1.13-1.12-2.96-1.11-4.08.02-.35.36-.61.8-.74,1.28-.25.93,0,1.86.77,2.83,1.15,1.45,4.05,3.55,4.05,3.55h0s2.9-2.1,4.05-3.55c.77-.97,1.02-1.9.77-2.83Z"/>
</svg>