<?xml version="1.0" encoding="UTF-8"?>
<svg id="Layer_1" data-name="Layer 1" xmlns="http://www.w3.org/2000/svg" viewBox="0 0 30.04 30.04">
  <defs>
    <style>
      .cls-1 {
        stroke-width: 1.75px;
      }

      .cls-1, .cls-2 {
        fill: none;
        stroke: #000;
        stroke-linejoin: bevel;
      }

      .cls-3 {
        stroke-width: 0px;
      }

      .cls-2 {
        stroke-width: 2px;
      }
    </style>
  </defs>
  <path class="cls-2" d="m7.34,9.46s1.92-.75,3.58-.75c1.66,0,4.1.75,4.1.75,0,0,2.44.75,4.1.75,1.66,0,3.58-.75,3.58-.75,0,0,0,11.12,0,11.12,0,0-1.92.75-3.58.75-1.66,0-4.1-.75-4.1-.75,0,0-2.44-.75-4.1-.75-1.66,0-3.58.75-3.58.75h0s0-11.12,0-11.12Z"/>
  <g>
    <path class="cls-3" d="m15.32,14.24c-.68-.02-1.95-.07-1.95-.38,0-.19.51-.39,1.48-.39s1.81.09,2.76.3l.24.05.36-1.58-.25-.05c-1-.22-2.01-.33-2.92-.33-2.81,0-3.4,1.13-3.4,2.07,0,1.77,1.99,1.88,3.59,1.97.88.05,1.63.09,1.63.25,0,.21-.51.43-1.64.43s-2.02-.14-3.15-.48l-.24-.07-.47,1.54.23.08c1.34.45,2.6.54,3.41.54,2.31,0,3.58-.75,3.58-2.1,0-1.72-1.97-1.8-3.28-1.85Z"/>
    <line class="cls-1" x1="15.02" y1="18.86" x2="15.02" y2="11.18"/>
  </g>
</svg>