<?xml version="1.0" encoding="UTF-8"?>
<svg id="Layer_1" data-name="Layer 1" xmlns="http://www.w3.org/2000/svg" viewBox="0 0 31.44 48.91">
  <defs>
    <style>
      .cls-1 {
        stroke-width: 0px;
      }
    </style>
  </defs>
  <path class="cls-1" d="m19.73,2.77l-4.92,19.36L9.89,2.77h-4.54s.93,2.21.93,5.01c0,2-.93,4.82-.93,8.77s.93,6.77.93,8.77c0,2.8-.93,5.01-.93,5.01h4.54v-14.71l3.68,14.71h2.4l3.76-14.91v14.91h4.34V2.77h-4.34Z"/>
  <g>
    <path class="cls-1" d="m1.22,46.14v-7.92h8.58v1.58H2.92v1.47h6.21v1.58H2.92v1.7h7.11v1.58H1.22Z"/>
    <path class="cls-1" d="m11.34,46.14v-7.92h1.7v6.33h6.55v1.58h-8.24Z"/>
    <path class="cls-1" d="m20.89,46.14v-7.92h5.93c1.82,0,3.4.7,3.4,2.79s-1.58,2.8-3.4,2.8h-4.23v2.32h-1.7Zm1.7-6.33v2.43h4.34c.92,0,1.56-.31,1.56-1.22s-.64-1.21-1.56-1.21h-4.34Z"/>
  </g>
</svg>