<?xml version="1.0" encoding="UTF-8"?>
<svg id="Layer_1" data-name="Layer 1" xmlns="http://www.w3.org/2000/svg" viewBox="0 0 69.61 48.91">
  <defs>
    <style>
      .cls-1 {
        stroke-width: 0px;
      }
    </style>
  </defs>
  <g>
    <path class="cls-1" d="m16.51,2.69l-4.92,19.36L6.67,2.69H2.13s.93,2.21.93,5.01c0,2-.93,4.82-.93,8.77s.93,6.77.93,8.77c0,2.8-.93,5.01-.93,5.01h4.54v-14.71l3.68,14.71h2.4l3.76-14.91v14.91h4.34V2.69h-4.34Z"/>
    <path class="cls-1" d="m30.94,30.26s-.93-2.21-.93-5.01c0-2,.93-4.82.93-8.77s-.93-6.77-.93-8.77c0-2.8.93-5.01.93-5.01h-5.15v27.57s5.15,0,5.15,0Z"/>
    <path class="cls-1" d="m46.55,18.02c2.52-1.35,3.21-3.79,3.21-7.2,0-5.69-2.01-8.13-7.05-8.13h-7.38s.93,2.21.93,5.01c0,2-.93,4.82-.93,8.77s.93,6.77.93,8.77c0,2.8-.93,5.01-.93,5.01h4.75v-11.31h2.44l3.6,11.31h4.53l-4.1-12.24Zm-3.79-2.98h-2.67V6.6h2.67c2.32,0,2.67,1.94,2.67,4.22s-.35,4.22-2.67,4.22Z"/>
    <path class="cls-1" d="m67.48,16.47c0-3.95-.93-6.77-.93-8.77,0-2.8.93-5.01.93-5.01h-7.84c-5.12.17-5.94,2.21-5.94,7.03v20.54h4.05v-11.31h5.34v11.31h4.4s-.93-2.21-.93-5.01c0-2,.93-4.82.93-8.77Zm-4.4-1.43h-5.34v-6.15c0-1.99,1.23-2.29,2.67-2.29s2.67.3,2.67,2.29v6.15Z"/>
  </g>
  <g>
    <g>
      <path class="cls-1" d="m2.13,46.05v-7.92h8.58v1.58H3.83v1.47h6.21v1.58H3.83v1.7h7.11v1.58H2.13Z"/>
      <path class="cls-1" d="m12.25,46.05v-7.92h1.7v6.33h6.55v1.58h-8.24Z"/>
    </g>
    <g>
      <path class="cls-1" d="m26.37,46.05v-7.92h5.93c1.82,0,3.4.7,3.4,2.79s-1.58,2.8-3.4,2.8h-4.23v2.32h-1.7Zm1.7-6.33v2.43h4.34c.92,0,1.56-.31,1.56-1.22s-.64-1.21-1.56-1.21h-4.34Z"/>
      <path class="cls-1" d="m46.16,46.05h-1.96l-.92-1.58h-5.29l-.9,1.58h-1.96l4.53-7.92h1.96l4.53,7.92Zm-7.12-3.39l-.14.23h3.48l-.12-.23-1.62-3.04-1.61,3.04Z"/>
      <path class="cls-1" d="m46.63,45.48l.46-1.52c1.53.45,2.88.69,4.56.69.52,0,2.67-.02,2.67-.96,0-.57-.77-.61-2.65-.71-2.27-.12-4.75-.26-4.75-2.43s2.47-2.58,4.46-2.58c1.24,0,2.65.16,4.05.46l-.35,1.55c-1.2-.26-2.43-.43-3.98-.43-.41,0-2.44.01-2.44.9,0,.77,1.52.84,3.1.89,2.22.09,4.3.33,4.3,2.26,0,2.22-2.74,2.61-4.7,2.61-1.46,0-3.12-.21-4.72-.75Z"/>
      <path class="cls-1" d="m62.16,37.97c3.49,0,5.31,1.78,5.31,4.13s-1.82,4.13-5.31,4.13-5.32-1.78-5.32-4.13,1.82-4.13,5.32-4.13Zm0,6.67c2.45,0,3.58-1.05,3.58-2.54s-1.13-2.54-3.58-2.54-3.58,1.05-3.58,2.54,1.13,2.54,3.58,2.54Z"/>
    </g>
  </g>
</svg>